<svg width="17" height="21" viewBox="0 0 17 21" fill="none" xmlns="http://www.w3.org/2000/svg">
<g clip-path="url(#clip0)">
<path d="M15.132 12.5795L15.1228 12.5689C14.9776 12.4031 14.533 11.8675 14.3831 11.6335C14.2071 11.3415 14.2477 11.1501 14.3796 10.8634C14.5462 10.5011 14.8802 9.94534 15.2337 9.35683C16.3657 7.47252 17.0965 6.16805 16.9461 5.24147L16.865 4.74655L12.6844 4.7488C12.6697 4.7976 12.4516 5.98376 11.531 8.00356C10.8634 9.46808 10.4255 9.92816 10.2713 10.0094L10.2475 10.0004C10.1973 9.92367 10.1096 9.71658 10.0735 9.18282C10.0359 8.62369 10.0693 7.94673 10.1016 7.29209C10.1393 6.52443 10.1718 5.86144 10.0939 5.38707L9.96692 4.61427C9.81349 4.58393 9.25176 4.31568 7.68667 4.2953C6.33169 4.27812 5.93364 4.52036 5.73819 4.73387L5.09163 5.44004L5.90887 5.78037C6.21989 5.90992 6.32313 6.05937 6.40783 6.80022C6.46308 7.2831 6.492 8.09458 6.43234 8.81906C6.34661 9.85785 6.14103 10.0511 6.1304 10.0614C6.09499 10.0465 5.79474 9.88386 5.27347 8.51983C4.91187 7.57382 4.59488 6.45476 4.36324 5.63766C4.09813 4.70192 4.14586 4.90114 4.01136 4.45904L-0.0332031 4.45888L0.228531 5.29685C1.3197 8.79369 2.32085 11.5245 3.66065 13.4858C5.14092 15.6529 6.98058 16.7875 9.45863 16.7875H9.95668V16.171C9.95668 15.5947 9.9952 15.1798 10.0778 14.8651C10.1283 14.6735 10.1953 14.515 10.2658 14.3489C10.3703 14.1042 10.4725 13.9994 10.5283 13.9838C10.5788 13.9695 10.6678 14.0154 10.7664 14.1065C11.0494 14.3676 11.274 14.7109 11.5119 15.0743C11.8551 15.5988 12.21 16.1409 12.773 16.4958C13.0806 16.6897 13.6446 16.7876 13.9549 16.7876C14.037 16.7876 16.9632 16.7875 16.9668 16.7875L16.9454 16.1457C16.9135 15.186 16.3033 13.9861 15.132 12.5795V12.5795ZM13.9743 15.5546H13.9662C13.7522 15.5589 13.3438 15.4721 13.225 15.3973C12.8507 15.1613 12.5891 14.7614 12.286 14.2985C12.0199 13.8918 11.7449 13.4714 11.3618 13.1181C11.0521 12.8322 10.7708 12.7485 10.5475 12.7485C10.4582 12.7485 10.3781 12.7619 10.3093 12.7811C10.0501 12.8534 9.67925 13.0842 9.38444 13.7743C9.3013 13.9707 9.20701 14.193 9.13062 14.4839C9.05059 14.7882 9.00079 15.1265 8.97705 15.5379C7.10963 15.4066 5.65245 14.4922 4.42134 12.6899C3.27674 11.0142 2.37623 8.67024 1.42255 5.69127C1.49155 5.69127 3.22058 5.69159 3.32265 5.69159C3.35391 5.80027 3.38763 5.91939 3.42343 6.04556C3.6731 6.92704 4.01512 8.13407 4.4181 9.16339C4.99513 10.6374 5.52211 11.2948 6.12664 11.2948C6.42845 11.2948 6.69913 11.1365 6.90938 10.8368C7.20911 10.4096 7.38317 9.70454 7.44154 8.68116C7.48758 7.87417 7.44478 7.07039 7.3942 6.62749C7.35243 6.26308 7.2929 5.88054 7.14764 5.53781C7.76669 5.50329 8.59561 5.55787 9.12076 5.65114C9.16849 5.97284 9.13736 6.60518 9.10727 7.21696C9.03451 8.69481 8.95941 10.2198 9.59144 10.9334C9.7026 11.0589 9.82049 11.1262 9.82386 11.1289L10.1455 11.2511C10.2696 11.2037 10.9886 11.6552 12.3499 8.71471C12.7861 7.77256 13.1922 6.68689 13.4108 5.97782C13.918 5.97654 15.6457 5.97894 15.8487 5.97927C15.5611 6.7625 14.8797 7.87963 14.4343 8.62112C14.046 9.26742 13.7107 9.82558 13.514 10.2532C13.1485 11.0477 13.2099 11.7558 13.5906 12.3804L13.5966 12.3901C13.809 12.7248 14.3337 13.3444 14.4425 13.4693C15.2308 14.4166 15.6107 15.0971 15.7915 15.5544H13.9743V15.5546Z" fill="white"/>
</g>
<defs>
<clipPath id="clip0">
<rect width="17" height="21" fill="white"/>
</clipPath>
</defs>
</svg>
